/* XPM */
static char * maximize_prelight_xpm[] = {
"24 26 17 1",
" 	c None",
".	c #F1F2F6",
"+	c #EDF0F5",
"@	c #ABDCEF",
"#	c #72CAEB",
"$	c #56C2E8",
"%	c #DFECF4",
"&	c #6DC9EA",
"*	c #4FC0E8",
"=	c #6CC9EA",
"-	c #ECF0F5",
";	c #ABDCF0",
">	c #52C1E8",
",	c #53C1E8",
"'	c #AADCEF",
")	c #70CAEA",
"!	c #55C2E8",
"                        ",
"                        ",
"                        ",
"                        ",
"                        ",
"                        ",
"........................",
"........................",
"........+@#$$#@+........",
".......%&******&%.......",
"......+&********=-......",
"......;**********;......",
"......#**********#......",
"......>**********,......",
"......>**********$......",
"......#**********#......",
"......@**********@......",
"......-=********=-......",
".......%&******=%.......",
"........+')!!)'+........",
"........................",
"........................",
"........................",
"........................",
"........................",
"........................"};
