/* XPM */
static char * top_right_active_xpm[] = {
"5 26 3 1",
" 	c None",
".	c #4FC0E8",
"+	c #F1F2F6",
"     ",
"..   ",
"...  ",
".... ",
".... ",
"+++++",
"+++++",
"+++++",
"+++++",
"+++++",
"+++++",
"+++++",
"+++++",
"+++++",
"+++++",
"+++++",
"+++++",
"+++++",
"+++++",
"+++++",
"+++++",
"+++++",
"+++++",
"+++++",
"+++++",
"+++++"};
