/* XPM */
static char * maximize_toggled_inactive_xpm[] = {
"24 26 7 1",
" 	c None",
".	c #F1F2F6",
"+	c #E5E7ED",
"@	c #D5D8E0",
"#	c #CDD1DA",
"$	c #D4D6DA",
"%	c #CCD0D9",
"                        ",
"                        ",
"                        ",
"                        ",
"                        ",
"                        ",
"                        ",
"........................",
"........................",
".........+@##@+.........",
"........$%%%%%%$........",
".......+%%%%%%%%+.......",
".......@%%%%%%%%@.......",
".......#%%%%%%%%#.......",
".......#%%%%%%%%#.......",
".......@%%%%%%%%@.......",
".......+%%%%%%%%+.......",
"........$%%%%%%$........",
".........+@##@+.........",
"........................",
"........................",
"........................",
"........................",
"........................",
"........................",
"........................"};
