/* XPM */
static char * top_left_active_xpm[] = {
"5 26 3 1",
" 	c None",
".	c #ED5466",
"+	c #F1F2F6",
"     ",
"   ..",
"  ...",
" ....",
" ....",
"+++++",
"+++++",
"+++++",
"+++++",
"+++++",
"+++++",
"+++++",
"+++++",
"+++++",
"+++++",
"+++++",
"+++++",
"+++++",
"+++++",
"+++++",
"+++++",
"+++++",
"+++++",
"+++++",
"+++++",
"+++++"};
