/* XPM */
static char * close_active_xpm[] = {
"24 26 11 1",
" 	c None",
".	c #F1F2F6",
"+	c #EFC2CA",
"@	c #EE7C8A",
"#	c #ED5B6C",
"$	c #EFC2CB",
"%	c #EEA0AB",
"&	c #ED5466",
"*	c #ED5C6D",
"=	c #EFC1C9",
"-	c #ED5A6C",
"                        ",
"                        ",
"                        ",
"                        ",
"                        ",
"                        ",
"                        ",
"........................",
"........................",
".........+@##@$.........",
"........%&&&&&&%........",
".......$&&&&&&&&+.......",
".......@&&&&&&&&@.......",
".......*&&&&&&&&*.......",
".......*&&&&&&&&#.......",
".......@&&&&&&&&@.......",
".......+&&&&&&&&+.......",
"........%&&&&&&%........",
".........=@--@+.........",
"........................",
"........................",
"........................",
"........................",
"........................",
"........................",
"........................"};
