/* XPM */
static char * hide_prelight_xpm[] = {
"24 26 15 1",
" 	c None",
".	c #F1F2F6",
"+	c #EFF1F2",
"@	c #CEE5B9",
"#	c #B1DB87",
"$	c #A3D66F",
"%	c #E8EEE7",
"&	c #AFDA83",
"*	c #A0D569",
"=	c #AEDA82",
"-	c #EEF1F2",
";	c #A1D56C",
">	c #A2D56C",
",	c #CDE5B8",
"'	c #B0DA85",
"                        ",
"                        ",
"                        ",
"                        ",
"                        ",
"                        ",
"                        ",
"........................",
"........+@#$$#@+........",
".......%&******&%.......",
"......+&********=-......",
"......@**********@......",
"......#**********#......",
"......;**********>......",
"......;**********$......",
"......#**********#......",
"......@**********@......",
"......-=********=-......",
".......%&******=%.......",
"........+,'$$',+........",
"........................",
"........................",
"........................",
"........................",
"........................",
"........................"};
