/* XPM */
static char * title_2_active_xpm[] = {
"2 26 3 1",
" 	c None",
".	c #ED5466",
"+	c #F1F2F6",
"..",
"..",
"..",
"..",
"..",
"++",
"++",
"++",
"++",
"++",
"++",
"++",
"++",
"++",
"++",
"++",
"++",
"++",
"++",
"++",
"++",
"++",
"++",
"++",
"++",
"++"};
